<?xml version="1.0" encoding="utf-8"?>
<!-- Generator: Adobe Illustrator 26.3.1, SVG Export Plug-In . SVG Version: 6.00 Build 0)  -->
<svg version="1.1" xmlns="http://www.w3.org/2000/svg" xmlns:xlink="http://www.w3.org/1999/xlink" x="0px" y="0px"
	 viewBox="0 0 1540.7 889" style="enable-background:new 0 0 1540.7 889;" xml:space="preserve">
<style type="text/css">
	.st0{fill:#F3E35E;}
	.st1{fill:#F2F2F2;}
	.st2{fill:#E2C1F3;}
</style>
<g id="BOULE_JAUNE">
	<g id="_x32_Corps">
		<circle id="Corps" class="st0" cx="1096.2" cy="444.5" r="444.5"/>
	</g>
	<g id="_x32_Yeux">
		<circle class="st1" cx="1160.1" cy="358.7" r="70.3"/>
		<circle cx="1160.1" cy="358.7" r="41.1"/>
		<circle class="st1" cx="1006.7" cy="386.1" r="70.3"/>
		<circle cx="1006.7" cy="386.1" r="41.1"/>
	</g>
	<g id="_x32_Bouche">
		<circle class="st2" cx="941.9" cy="485.6" r="43.8"/>
		<circle class="st2" cx="1255.9" cy="427.2" r="43.8"/>
		<g>
			<g>
				<path d="M973.4,501c16.2,12.8,35.8,22,55.3,28.5c41.9,13.9,86.8,12.1,127.3-5.5c32.5-14.1,60.3-37.7,83.4-64.3
					c3.5-4.1,4-10.1,0-14.1c-3.6-3.6-10.6-4.1-14.1,0c-19.8,22.7-42.5,42.8-69.4,56.5c-19.9,10.1-41.9,15.9-63.3,16.8
					c-4.9,0.2-9.8,0.2-14.6-0.1c-2.4-0.1-4.9-0.3-7.3-0.5c-1-0.1-2.1-0.2-3.1-0.3c-0.7-0.1-1.4-0.2-2-0.2c1.1,0.1,0.2,0-0.4,0
					c-8.7-1.2-17.3-3.2-25.7-5.7c-3.9-1.2-7.8-2.5-11.6-3.9c-1.7-0.6-3.3-1.3-5-1.9c-0.7-0.3-1.5-0.6-2.2-0.9
					c2.2,0.9-0.6-0.3-1.2-0.5c-5.7-2.5-11.4-5.3-16.8-8.4c-4.3-2.4-8.4-4.9-12.5-7.7c-1.1-0.8-2.3-1.6-3.4-2.4
					c-1.9-1.4-0.1-0.1,0.7,0.6c-4.2-3.3-10-4.1-14.1,0C969.9,490.3,969.1,497.6,973.4,501L973.4,501z"/>
			</g>
		</g>
	</g>
</g>
<g id="BOULE_VIOLETTE">
	<g id="_x31_Corps">
		<circle id="Corps_00000021100995314647100840000005730143511221955236_" class="st2" cx="444.5" cy="444.5" r="444.5"/>
	</g>
	<g id="_x31_Yeux">
		<circle class="st1" cx="523" cy="373.3" r="70.3"/>
		<circle cx="523" cy="373.3" r="41.1"/>
		<circle class="st1" cx="366" cy="366" r="70.3"/>
		<circle cx="366" cy="366" r="41.1"/>
	</g>
	<g id="_x31_Bouche">
		<circle class="st0" cx="606.1" cy="456.4" r="43.8"/>
		<circle class="st0" cx="281.1" cy="447.2" r="43.8"/>
		<g>
			<g>
				<path d="M306.6,465.3c13,15.2,30.6,27.6,48,37.2c38.6,21.4,83.2,28.4,126.3,18.5c35.2-8,66.8-26.4,95-48.4
					c4.3-3.3,3.5-10.7,0-14.1c-4.2-4.2-9.9-3.3-14.1,0c-23.3,18.2-49.6,33.3-78.3,41.3c-11.5,3.2-22.6,5.1-34.4,5.7
					c-9.9,0.5-21.8-0.1-30.2-1.4c-9.7-1.5-19.2-3.9-28.5-7.2c-8.8-3-14.1-5.4-22.8-10c-6.7-3.6-13.2-7.5-19.4-11.8
					c-1.3-0.9-2.6-1.8-3.9-2.8c-0.7-0.5-1.3-1-2-1.5c-0.4-0.3-2.6-2-1.5-1.1c1.2,0.9-0.8-0.7-1.1-0.9c-0.5-0.4-1-0.8-1.5-1.2
					c-1.2-1-2.3-1.9-3.5-2.9c-4.9-4.2-9.9-8.6-14.1-13.6c-3.5-4.1-10.5-3.6-14.1,0C302.5,455.2,303,461.2,306.6,465.3L306.6,465.3z"
					/>
			</g>
		</g>
	</g>
</g>
</svg>
